# xmcd
#
# Track frame offsets:
#	150
#	18766
#	38228
#	56653
#	74522
#	91473
#	106788
#	124195
#	139138
#	154774
#	177199
#	192232
#	204345
#
# Disc length: 3012 seconds
#
# Revision: 0
# Processed by: cddbd v1.5.2PL0 Copyright (c) Steve Scherf et al.
# Submitted via: dBpowerAMP V4.0
#
DISCID=af0bc20d
DTITLE=Danny Brooks - Souled Out 'n Sanctified
DYEAR=1900
DGENRE=Blues
TTITLE0=Soulsville
TTITLE1=Nobody Knows You Like the Lord
TTITLE2=Fence Me In
TTITLE3=Glory Hallelujah
TTITLE4=Other Side of the Cloud
TTITLE5=Lift Me Up
TTITLE6=Soul Satisfied
TTITLE7=Standing on the Rock
TTITLE8=You Won't Show
TTITLE9=Have Mercy
TTITLE10=Comforter of My Soul
TTITLE11=Walk That Walk
TTITLE12=Souled Out 'n Sanctified
EXTD=
EXTT0=
EXTT1=
EXTT2=
EXTT3=
EXTT4=
EXTT5=
EXTT6=
EXTT7=
EXTT8=
EXTT9=
EXTT10=
EXTT11=
EXTT12=
PLAYORDER=
